<svg xmlns="http://www.w3.org/2000/svg" width="900" height="700" viewBox="0 0 900 700" role="img" aria-label="Blusa Marfim Elegance">
  <defs>
  <linearGradient id="bg" x1="0" y1="0" x2="1" y2="1">
    <stop offset="0%" stop-color="#fffaf1"/>
    <stop offset="100%" stop-color="#f4dfc8"/>
  </linearGradient>
  <linearGradient id="wine" x1="0" y1="0" x2="1" y2="1">
    <stop offset="0%" stop-color="#9a2044"/>
    <stop offset="100%" stop-color="#5c0820"/>
  </linearGradient>
  <linearGradient id="gold" x1="0" y1="0" x2="1" y2="1">
    <stop offset="0%" stop-color="#f1d39a"/>
    <stop offset="100%" stop-color="#b9803e"/>
  </linearGradient>
  <filter id="shadow" x="-20%" y="-20%" width="140%" height="140%">
    <feDropShadow dx="0" dy="18" stdDeviation="18" flood-color="#5c0820" flood-opacity="0.18"/>
  </filter>
</defs>
  <rect width="900" height="700" rx="44" fill="url(#bg)"/>
  <circle cx="760" cy="120" r="150" fill="#780e2d" opacity="0.08"/>
  <circle cx="150" cy="610" r="180" fill="#d4a64f" opacity="0.13"/>
  <path d="M92 122 C220 42 337 44 448 116 C560 190 665 165 800 88" fill="none" stroke="#780e2d" opacity="0.08" stroke-width="26"/>
  
  <g filter="url(#shadow)">
    <path d="M350 175 C392 132 508 132 550 175 L625 265 L580 320 L535 270 L520 515 C478 538 422 538 380 515 L365 270 L320 320 L275 265 Z" fill="#fff7e8" stroke="#780e2d" stroke-width="7"/>
    <path d="M402 168 C415 210 485 210 498 168" fill="none" stroke="#b9803e" stroke-width="8" stroke-linecap="round"/>
    <path d="M382 320 C420 342 481 342 520 320" fill="none" stroke="#d4a64f" stroke-width="6" opacity="0.85"/>
  </g>

  <text x="450" y="640" text-anchor="middle" font-family="Georgia, serif" font-size="34" font-weight="700" fill="#5c0820">IA Collection</text>
</svg>